<mxfile host="app.diagrams.net" modified="2023-10-31T14:08:08.202Z" agent="Mozilla/5.0 (Macintosh; Intel Mac OS X 10_15_7) AppleWebKit/605.1.15 (KHTML, like Gecko) Version/17.0 Safari/605.1.15" etag="9FBphnBiXQHLa2-m-Jpw" version="22.0.8" type="github">
  <diagram name="Page-1" id="JEfVLk9obuvLaRED6Doc">
    <mxGraphModel dx="1405" dy="881" grid="1" gridSize="10" guides="1" tooltips="1" connect="1" arrows="1" fold="1" page="1" pageScale="1" pageWidth="827" pageHeight="1169" math="0" shadow="0">
      <root>
        <mxCell id="0" />
        <mxCell id="1" parent="0" />
      </root>
    </mxGraphModel>
  </diagram>
</mxfile>
